<svg width="360" height="303" viewBox="0 0 360 303" fill="none" xmlns="http://www.w3.org/2000/svg">
<rect width="360" height="303" fill="#F5F5F5"/>
<rect x="36.9299" y="58.9587" width="280.273" height="162.909" rx="16" transform="rotate(14.1882 36.9299 58.9587)" fill="url(#paint0_linear_0_1)"/>
<mask id="mask0_0_1" style="mask-type:alpha" maskUnits="userSpaceOnUse" x="0" y="62" width="306" height="221">
<rect x="36.9299" y="58.9587" width="280.273" height="162.909" rx="16" transform="rotate(14.1882 36.9299 58.9587)" fill="url(#paint1_linear_0_1)"/>
</mask>
<g mask="url(#mask0_0_1)">
<path d="M312.186 117.256C286.795 119.419 250.736 171.644 328.352 189.099C425.373 210.917 468.908 227.066 357.361 224.439C260.819 222.165 221.155 161.997 275.044 105.155C325.687 51.7367 266.869 63.6397 256.079 87.2613C213.946 114.553 174.594 214.82 329.044 248.899C523.189 291.737 464.839 508.631 276.091 351.148C87.3427 193.664 21.9265 109.37 -57.6504 238.314L-12.3501 218.148C1.1456 202.287 40.3702 187.571 89.3028 255.592L271.316 309.287C267.166 312.002 246.707 305.143 198.064 255.986C137.261 194.54 243.481 231.784 291.548 290.01" stroke="#FFD130" stroke-width="2"/>
</g>
<g filter="url(#filter0_d_0_1)">
<rect x="117.515" y="-3" width="280.273" height="162.909" rx="16" transform="rotate(32.9113 117.515 -3)" fill="#FF94DB"/>
<mask id="mask1_0_1" style="mask-type:alpha" maskUnits="userSpaceOnUse" x="35" y="3" width="312" height="277">
<rect x="117.515" y="-3" width="280.273" height="162.909" rx="16" transform="rotate(32.9113 117.515 -3)" fill="url(#paint2_linear_0_1)"/>
</mask>
<g mask="url(#mask1_0_1)">
<path d="M-29.6331 136.504C70.6199 53.5786 110.519 116.199 200.96 268.336L245.704 299.853L259.143 309.318C257.045 309.86 252.586 307.672 245.704 299.853L200.96 268.336L103.997 200.039C79.4888 119.91 37.6161 121.257 19.7433 131.946L-29.6331 136.504Z" fill="url(#paint3_linear_0_1)"/>
<path d="M359.491 140.568C334.75 134.467 283.834 172.353 351.741 213.799C436.624 265.606 472.671 294.874 367.87 256.58C277.167 223.437 258.915 153.721 328.198 117.185C393.309 82.8499 333.783 75.2428 315.981 94.1506C267.318 106.473 197.863 188.802 333.2 270.656C503.32 373.546 378.436 560.233 250.228 350.496C122.02 140.759 87.1232 39.9277 -29.6331 136.504L19.7433 131.946C37.6161 121.257 79.4888 119.91 103.997 200.039L259.143 309.318C254.341 310.558 237.166 297.494 206.876 235.324C169.015 157.612 257.659 226.982 284.491 297.555" stroke="#70EDCF" stroke-width="2"/>
</g>
</g>
<path d="M121.104 50.4252C120.621 51.1797 119.986 51.7704 119.199 52.1975C118.426 52.6332 117.526 52.8072 116.499 52.7194C115.486 52.6402 114.4 52.2295 113.241 51.4872L110.877 49.9724L107.407 55.3882L104.578 53.5756L113.615 39.4702L118.809 42.7976C119.9 43.4967 120.708 44.2809 121.235 45.1501C121.761 46.0193 122.001 46.9048 121.956 47.8066C121.923 48.7171 121.64 49.5899 121.104 50.4252ZM114.583 49.1259C115.364 49.6266 116.056 49.8226 116.658 49.714C117.268 49.5919 117.78 49.2075 118.194 48.5609C119.075 47.1867 118.747 46.0076 117.211 45.0236L114.968 43.5865L112.34 47.6888L114.583 49.1259ZM125.761 53.8076C126.505 53.4479 127.274 53.2852 128.069 53.3195C128.878 53.3625 129.659 53.6257 130.413 54.109L128.51 57.0796L127.763 56.6006C126.873 56.0309 126.066 55.8082 125.34 55.9324C124.628 56.0652 123.94 56.6503 123.275 57.6876L119.702 63.2651L116.873 61.4525L124.045 50.2571L126.874 52.0697L125.761 53.8076ZM139.192 67.5144C138.933 67.9186 138.673 68.2651 138.412 68.5539L130.227 63.3104C129.777 64.1619 129.654 64.9763 129.859 65.7537C130.064 66.5311 130.53 67.1529 131.258 67.619C132.309 68.2922 133.346 68.3199 134.369 67.7021L137.42 69.6571C136.406 70.5278 135.217 71.0199 133.852 71.1335C132.496 71.2337 131.15 70.8565 129.817 70.002C128.739 69.3115 127.92 68.4543 127.36 67.4303C126.822 66.4016 126.591 65.294 126.667 64.1075C126.756 62.9298 127.168 61.7683 127.902 60.6232C128.644 59.4645 129.531 58.5984 130.564 58.0248C131.597 57.4512 132.688 57.2006 133.839 57.2728C134.99 57.3451 136.118 57.7351 137.222 58.4428C138.287 59.1247 139.09 59.9622 139.632 60.9554C140.187 61.9573 140.422 63.0293 140.336 64.1715C140.272 65.3089 139.891 66.4232 139.192 67.5144ZM136.779 64.8288C137.232 64.0927 137.341 63.345 137.105 62.5859C136.878 61.8134 136.394 61.1897 135.653 60.715C134.952 60.2662 134.221 60.1019 133.46 60.2223C132.721 60.3379 132.056 60.7383 131.465 61.4237L136.779 64.8288ZM158.695 72.2281C160.069 73.1085 160.902 74.2406 161.193 75.6245C161.507 77.0036 161.18 78.4475 160.214 79.9564L156.006 86.5241L153.177 84.7116L157.138 78.5278C157.699 77.6521 157.904 76.8428 157.753 76.0999C157.611 75.3436 157.156 74.7194 156.388 74.2274C155.62 73.7354 154.856 73.5785 154.096 73.7565C153.358 73.9298 152.708 74.4542 152.147 75.3299L148.185 81.5137L145.356 79.7011L149.318 73.5173C149.879 72.6416 150.084 71.8323 149.933 71.0895C149.79 70.3331 149.335 69.7089 148.567 69.2169C147.786 68.7163 147.015 68.555 146.255 68.7331C145.517 68.9063 144.867 69.4308 144.306 70.3065L140.344 76.4902L137.515 74.6777L144.688 63.4822L147.517 65.2948L146.65 66.6488C147.315 66.4103 148.018 66.3376 148.756 66.4307C149.508 66.5324 150.227 66.8033 150.914 67.2435C151.79 67.8045 152.451 68.4938 152.896 69.3112C153.35 70.1151 153.546 70.9815 153.483 71.9102C154.261 71.4966 155.119 71.3146 156.056 71.3641C157.007 71.4222 157.886 71.7102 158.695 72.2281ZM168.152 76.6342C167.654 76.3149 167.336 75.8924 167.197 75.3667C167.081 74.8362 167.174 74.3352 167.476 73.8637C167.778 73.3922 168.19 73.1051 168.712 73.0024C169.256 72.8948 169.777 73.0007 170.276 73.3201C170.774 73.6394 171.082 74.0643 171.198 74.5948C171.336 75.1205 171.254 75.6191 170.952 76.0906C170.65 76.5621 170.227 76.8516 169.683 76.9592C169.161 77.0619 168.651 76.9536 168.152 76.6342ZM168.692 78.8613L161.52 90.0567L158.69 88.2441L165.863 77.0487L168.692 78.8613ZM182.056 87.4234L174.884 98.6188L172.034 96.7933L172.941 95.3787C172.266 95.6307 171.542 95.7082 170.768 95.6114C170.016 95.5096 169.297 95.2387 168.609 94.7985C167.734 94.2375 167.076 93.5593 166.635 92.764C166.203 91.9552 166.021 91.0686 166.087 90.1043C166.176 89.1351 166.54 88.1521 167.179 87.1551L171.386 80.5874L174.216 82.4L170.267 88.5635C169.697 89.4527 169.479 90.2822 169.613 91.052C169.756 91.8084 170.211 92.4326 170.979 92.9245C171.76 93.4252 172.524 93.5821 173.271 93.3954C174.026 93.1953 174.689 92.6506 175.258 91.7614L179.207 85.5979L182.056 87.4234ZM198.855 97.9577C200.229 98.838 201.062 99.9702 201.353 101.354C201.667 102.733 201.34 104.177 200.374 105.686L196.166 112.254L193.337 110.441L197.298 104.257C197.86 103.382 198.064 102.572 197.913 101.829C197.771 101.073 197.316 100.449 196.548 99.957C195.78 99.465 195.016 99.308 194.256 99.4861C193.518 99.6593 192.868 100.184 192.307 101.059L188.345 107.243L185.516 105.431L189.478 99.2469C190.039 98.3712 190.244 97.5619 190.093 96.819C189.95 96.0627 189.495 95.4385 188.727 94.9465C187.946 94.4459 187.175 94.2846 186.415 94.4627C185.677 94.6359 185.027 95.1604 184.466 96.036L180.504 102.22L177.675 100.407L184.848 89.2118L187.677 91.0244L186.81 92.3783C187.475 92.1399 188.178 92.0672 188.916 92.1602C189.668 92.2619 190.387 92.5329 191.075 92.9731C191.95 93.5341 192.611 94.2233 193.056 95.0408C193.51 95.8447 193.706 96.7111 193.643 97.6398C194.421 97.2262 195.279 97.0441 196.216 97.0936C197.167 97.1518 198.046 97.4398 198.855 97.9577ZM109.188 67.5124L107.725 69.7959L103.966 67.3878L96.3923 79.2096L93.5631 77.3971L101.137 65.5752L97.3784 63.1671L98.8414 60.8835L109.188 67.5124ZM116.364 83.7678C116.105 84.1719 115.845 84.5184 115.584 84.8072L107.4 79.5637C106.949 80.4152 106.827 81.2296 107.032 82.0071C107.237 82.7845 107.703 83.4062 108.43 83.8723C109.481 84.5456 110.518 84.5733 111.541 83.9555L114.592 85.9105C113.579 86.7811 112.389 87.2732 111.024 87.3868C109.668 87.487 108.323 87.1098 106.989 86.2553C105.911 85.5648 105.092 84.7076 104.532 83.6837C103.994 82.6549 103.763 81.5473 103.839 80.3609C103.929 79.1831 104.34 78.0216 105.074 76.8765C105.816 75.7179 106.704 74.8518 107.736 74.2782C108.769 73.7046 109.861 73.4539 111.012 73.5261C112.162 73.5984 113.29 73.9884 114.395 74.6962C115.459 75.378 116.262 76.2156 116.804 77.2088C117.359 78.2106 117.594 79.2826 117.508 80.4248C117.445 81.5622 117.063 82.6765 116.364 83.7678ZM113.952 81.0821C114.405 80.346 114.513 79.5984 114.277 78.8393C114.05 78.0667 113.566 77.4431 112.825 76.9683C112.125 76.5195 111.394 76.3553 110.632 76.4757C109.893 76.5912 109.228 76.9917 108.637 77.6771L113.952 81.0821ZM135.867 88.4814C137.241 89.3618 138.074 90.494 138.366 91.8779C138.679 93.2569 138.353 94.7009 137.386 96.2098L133.178 102.777L130.349 100.965L134.311 94.7811C134.872 93.9054 135.077 93.0962 134.926 92.3533C134.783 91.5969 134.328 90.9727 133.56 90.4807C132.792 89.9888 132.028 89.8318 131.268 90.0099C130.53 90.1831 129.88 90.7075 129.319 91.5832L125.358 97.767L122.528 95.9544L126.49 89.7707C127.051 88.895 127.256 88.0857 127.105 87.3428C126.963 86.5864 126.507 85.9623 125.739 85.4703C124.958 84.9697 124.187 84.8084 123.427 84.9864C122.689 85.1597 122.04 85.6841 121.479 86.5598L117.517 92.7436L114.688 90.931L121.86 79.7356L124.689 81.5482L123.822 82.9021C124.488 82.6636 125.19 82.5909 125.928 82.684C126.68 82.7857 127.4 83.0566 128.087 83.4968C128.963 84.0579 129.623 84.7471 130.069 85.5645C130.523 86.3685 130.718 87.2348 130.655 88.1636C131.433 87.75 132.291 87.5679 133.228 87.6174C134.179 87.6755 135.059 87.9635 135.867 88.4814ZM144.829 96.7313C145.521 96.4524 146.291 96.3474 147.14 96.4163C148.011 96.4803 148.858 96.7756 149.679 97.3021C150.636 97.9149 151.347 98.7031 151.813 99.6666C152.292 100.639 152.474 101.705 152.357 102.866C152.263 104.021 151.849 105.172 151.115 106.317C150.381 107.462 149.501 108.332 148.473 108.928C147.467 109.519 146.419 109.807 145.326 109.791C144.248 109.784 143.23 109.474 142.274 108.861C141.452 108.335 140.832 107.7 140.415 106.958C140.011 106.224 139.778 105.476 139.715 104.714L135.274 111.645L132.445 109.832L143.036 93.3021L145.865 95.1147L144.829 96.7313ZM148.225 104.465C148.657 103.792 148.887 103.122 148.914 102.456C148.964 101.784 148.842 101.174 148.548 100.625C148.268 100.084 147.865 99.6453 147.339 99.3087C146.827 98.9807 146.256 98.8047 145.625 98.7806C145.017 98.7518 144.411 98.896 143.809 99.2132C143.22 99.539 142.71 100.039 142.278 100.712C141.847 101.386 141.606 102.058 141.556 102.729C141.52 103.409 141.638 104.026 141.909 104.58C142.204 105.13 142.607 105.569 143.118 105.897C143.644 106.233 144.215 106.409 144.832 106.425C145.463 106.449 146.073 106.298 146.662 105.972C147.264 105.655 147.785 105.152 148.225 104.465ZM161.969 100.131L152.388 115.085L149.559 113.272L159.14 98.3179L161.969 100.131ZM158.068 110.771C158.793 109.64 159.658 108.778 160.664 108.187C161.683 107.605 162.728 107.324 163.798 107.345C164.881 107.374 165.901 107.695 166.858 108.308C167.693 108.843 168.312 109.477 168.716 110.211C169.134 110.954 169.367 111.702 169.416 112.455L170.439 110.859L173.289 112.684L166.116 123.88L163.267 122.054L164.315 120.417C163.615 120.71 162.829 120.824 161.958 120.76C161.109 120.691 160.267 120.389 159.432 119.854C158.489 119.25 157.782 118.455 157.311 117.469C156.854 116.492 156.677 115.419 156.78 114.25C156.905 113.076 157.334 111.916 158.068 110.771ZM166.853 116.457C167.293 115.769 167.534 115.097 167.575 114.44C167.625 113.768 167.503 113.158 167.209 112.609C166.923 112.046 166.518 111.596 165.993 111.259C165.467 110.923 164.9 110.74 164.292 110.711C163.683 110.682 163.078 110.827 162.475 111.144C161.895 111.456 161.389 111.949 160.958 112.623C160.526 113.296 160.281 113.975 160.223 114.66C160.186 115.34 160.304 115.957 160.576 116.511C160.861 117.074 161.26 117.519 161.772 117.847C162.297 118.184 162.871 118.371 163.493 118.408C164.124 118.433 164.729 118.288 165.309 117.976C165.898 117.65 166.413 117.144 166.853 116.457ZM177.857 118.889L174.387 124.305C174.145 124.682 174.056 125.014 174.119 125.302C174.204 125.584 174.462 125.864 174.893 126.14L176.207 126.981L174.679 129.366L172.901 128.227C170.516 126.699 170.066 124.776 171.551 122.459L175.007 117.063L173.674 116.209L175.163 113.885L176.496 114.74L178.27 111.971L181.119 113.796L179.346 116.565L181.851 118.17L180.363 120.494L177.857 118.889ZM190.863 131.497C190.604 131.901 190.344 132.248 190.083 132.537L181.898 127.293C181.448 128.144 181.325 128.959 181.53 129.736C181.735 130.514 182.201 131.136 182.929 131.602C183.98 132.275 185.017 132.303 186.039 131.685L189.091 133.64C188.077 134.51 186.888 135.003 185.523 135.116C184.166 135.216 182.821 134.839 181.488 133.985C180.41 133.294 179.591 132.437 179.031 131.413C178.493 130.384 178.262 129.277 178.338 128.09C178.427 126.912 178.839 125.751 179.573 124.606C180.315 123.447 181.202 122.581 182.235 122.007C183.267 121.434 184.359 121.183 185.51 121.255C186.661 121.328 187.789 121.718 188.893 122.425C189.958 123.107 190.761 123.945 191.302 124.938C191.858 125.94 192.093 127.012 192.007 128.154C191.943 129.291 191.562 130.406 190.863 131.497ZM188.45 128.811C188.903 128.075 189.011 127.328 188.776 126.569C188.549 125.796 188.065 125.172 187.324 124.698C186.623 124.249 185.892 124.085 185.131 124.205C184.392 124.32 183.727 124.721 183.136 125.406L188.45 128.811ZM193.354 141.587C192.438 141 191.719 140.312 191.199 139.522C190.687 138.719 190.397 137.897 190.329 137.055C190.273 136.222 190.446 135.448 190.846 134.735L193.695 136.561C193.473 137.027 193.453 137.517 193.635 138.033C193.831 138.558 194.205 138.997 194.758 139.351C195.297 139.696 195.783 139.856 196.218 139.83C196.666 139.813 196.998 139.636 197.213 139.3C197.446 138.936 197.43 138.546 197.165 138.129C196.922 137.707 196.466 137.13 195.796 136.396C195.09 135.659 194.537 135.01 194.136 134.449C193.748 133.897 193.502 133.273 193.396 132.579C193.304 131.892 193.499 131.172 193.982 130.417C194.38 129.798 194.917 129.344 195.595 129.057C196.287 128.778 197.058 128.702 197.908 128.828C198.772 128.963 199.655 129.32 200.557 129.898C201.891 130.753 202.74 131.771 203.103 132.954C203.475 134.124 203.339 135.3 202.694 136.484L199.987 134.749C200.231 134.278 200.267 133.807 200.094 133.335C199.943 132.859 199.592 132.443 199.039 132.09C198.527 131.762 198.07 131.601 197.666 131.609C197.276 131.625 196.972 131.801 196.757 132.138C196.515 132.515 196.518 132.926 196.766 133.369C197.022 133.8 197.483 134.37 198.148 135.082C198.827 135.802 199.36 136.438 199.748 136.99C200.135 137.542 200.371 138.168 200.454 138.868C200.56 139.563 200.383 140.285 199.921 141.035C199.507 141.681 198.954 142.144 198.262 142.423C197.584 142.71 196.813 142.787 195.95 142.651C195.108 142.511 194.243 142.157 193.354 141.587Z" fill="white"/>
<defs>
<filter id="filter0_d_0_1" x="22.1236" y="0.123734" width="337.56" height="302.8" filterUnits="userSpaceOnUse" color-interpolation-filters="sRGB">
<feFlood flood-opacity="0" result="BackgroundImageFix"/>
<feColorMatrix in="SourceAlpha" type="matrix" values="0 0 0 0 0 0 0 0 0 0 0 0 0 0 0 0 0 0 127 0" result="hardAlpha"/>
<feOffset dy="10"/>
<feGaussianBlur stdDeviation="6.5"/>
<feComposite in2="hardAlpha" operator="out"/>
<feColorMatrix type="matrix" values="0 0 0 0 0 0 0 0 0 0 0 0 0 0 0 0 0 0 0.5 0"/>
<feBlend mode="normal" in2="BackgroundImageFix" result="effect1_dropShadow_0_1"/>
<feBlend mode="normal" in="SourceGraphic" in2="effect1_dropShadow_0_1" result="shape"/>
</filter>
<linearGradient id="paint0_linear_0_1" x1="177.066" y1="58.9587" x2="177.066" y2="221.867" gradientUnits="userSpaceOnUse">
<stop stop-color="#FF6673"/>
<stop offset="1" stop-color="#FF9A59"/>
</linearGradient>
<linearGradient id="paint1_linear_0_1" x1="177.066" y1="58.9587" x2="177.066" y2="221.867" gradientUnits="userSpaceOnUse">
<stop stop-color="#3461FF"/>
<stop offset="1" stop-color="#8454EB"/>
</linearGradient>
<linearGradient id="paint2_linear_0_1" x1="144.687" y1="13.3793" x2="374.892" y2="147.291" gradientUnits="userSpaceOnUse">
<stop stop-color="#41EAEB"/>
<stop offset="0.9999" stop-color="#D5F693"/>
<stop offset="1" stop-color="#FF94DB" stop-opacity="0"/>
</linearGradient>
<linearGradient id="paint3_linear_0_1" x1="132.376" y1="-20.6422" x2="359.782" y2="421.99" gradientUnits="userSpaceOnUse">
<stop stop-color="#41EAEB"/>
<stop offset="0.9999" stop-color="#D5F693"/>
<stop offset="1" stop-color="#FF94DB" stop-opacity="0"/>
</linearGradient>
</defs>
</svg>
