<!DOCTYPE svg PUBLIC "-//W3C//DTD SVG 1.1//EN" "http://www.w3.org/Graphics/SVG/1.1/DTD/svg11.dtd">
<!-- Uploaded to: SVG Repo, www.svgrepo.com, Transformed by: SVG Repo Mixer Tools -->
<svg height="800px" width="800px" version="1.1" id="Layer_1" xmlns="http://www.w3.org/2000/svg" xmlns:xlink="http://www.w3.org/1999/xlink" viewBox="-51.2 -51.2 614.40 614.40" xml:space="preserve" fill="#000000" transform="matrix(1, 0, 0, 1, 0, 0)rotate(0)">
<g id="SVGRepo_bgCarrier" stroke-width="0">
<path transform="translate(-51.2, -51.2), scale(38.4)" fill="#653b87" d="M9.166.33a2.25 2.25 0 00-2.332 0l-5.25 3.182A2.25 2.25 0 00.5 5.436v5.128a2.25 2.25 0 001.084 1.924l5.25 3.182a2.25 2.25 0 002.332 0l5.25-3.182a2.25 2.25 0 001.084-1.924V5.436a2.25 2.25 0 00-1.084-1.924L9.166.33z" strokewidth="0"/>
</g>
<g id="SVGRepo_tracerCarrier" stroke-linecap="round" stroke-linejoin="round"/>
<g id="SVGRepo_iconCarrier"> <path style="fill:#04142a;" d="M95.998,418.909H76.22c-25.706,0-46.545,20.84-46.545,46.545C29.674,491.16,50.514,512,76.22,512 h66.324h188.509c83.413,0,151.273-67.86,151.273-151.273c0-40.609-16.088-77.528-42.22-104.727 c26.132-27.2,42.22-64.118,42.22-104.727C482.326,67.86,414.466,0,331.053,0H142.544H76.22C50.514,0,29.674,20.84,29.674,46.545 s20.84,46.545,46.545,46.545h19.779V256V418.909z M189.089,93.091h141.964c32.082,0,58.182,26.1,58.182,58.182 s-26.1,58.182-58.182,58.182H189.089L189.089,93.091L189.089,93.091z M189.089,302.545h141.964c32.082,0,58.182,26.1,58.182,58.182 s-26.1,58.182-58.182,58.182H189.089L189.089,302.545L189.089,302.545z"/> <path style="fill:#131f7c;" d="M189.089,418.909V302.545H256v-93.091h-66.911V93.091H256V0H142.544H76.22 C50.514,0,29.674,20.84,29.674,46.545s20.84,46.545,46.545,46.545h19.779V256v162.909H76.22c-25.706,0-46.545,20.84-46.545,46.545 C29.674,491.16,50.514,512,76.22,512h66.324H256v-93.091H189.089z"/> </g>
</svg>