<svg width="354" height="224" viewBox="0 0 354 224" fill="none" xmlns="http://www.w3.org/2000/svg">
<path d="M349.91 21.0258L350.687 200.662C350.741 212.22 341.399 221.636 329.841 221.689L21.805 223.021C10.2475 223.074 0.831087 213.732 0.777826 202.175L0.000226611 22.5384C-0.0530337 10.9809 9.28882 1.56449 20.8463 1.51123L328.882 0.179726C333.015 0.158422 336.893 1.3408 340.142 3.41795C346 7.10357 349.878 13.6013 349.91 21.0258Z" fill="url(#paint0_linear_12_13)"/>
<path d="M265.289 0.818787C230.479 30.293 226.239 67.2557 186.454 138.433C166.822 173.542 147.297 201.344 131.361 222.904L103.772 223.021C94.8459 223.063 87.1977 217.492 84.1512 209.631C89.5199 204.23 94.6755 198.734 99.3411 193.408C166.46 116.798 143.899 65.7537 206.16 5.75069C207.832 4.13158 209.515 2.56573 211.198 1.05313L265.289 0.818787Z" fill="url(#paint1_linear_12_13)"/>
<path d="M353.222 21.0258L353.425 67.4475C338.352 88.1977 310.028 121.517 268.485 140.851C227.39 159.982 205.287 150.576 173.501 178.698C164.702 186.474 148.458 201.269 144.815 222.499L116.267 222.627C128.411 203.794 138.2 182.149 162.465 153.793C208.216 100.352 233.653 106.967 263.425 55.0805C265.875 50.809 281.31 23.4971 285.912 0.392799L332.195 0.190408C336.328 0.169103 340.205 1.35148 343.454 3.42863C349.313 7.10359 353.19 13.6013 353.222 21.0258Z" fill="url(#paint2_linear_12_13)"/>
<path d="M291.792 0.382141C287.179 23.4971 271.745 50.809 269.295 55.0805C239.522 106.967 214.085 100.352 168.334 153.793C144.058 182.149 134.28 203.794 122.136 222.627L58.5863 222.904C74.5111 201.344 94.047 173.531 113.679 138.433C153.464 67.2557 157.693 30.3038 192.515 0.818875L291.792 0.382141Z" fill="url(#paint3_linear_12_13)"/>
<path d="M353.755 144.11L354 200.651C354.053 212.209 344.711 221.625 333.154 221.679L224.173 222.147C241.248 203.229 263.543 182.745 295.115 167.247C318.848 155.604 336.988 152.11 353.755 144.11Z" fill="url(#paint4_linear_12_13)"/>
<path d="M353.425 67.4474L353.755 144.11C336.988 152.11 318.848 155.604 295.115 167.247C263.553 182.745 241.248 203.229 224.172 222.147L144.804 222.488C148.436 201.259 164.691 186.463 173.49 178.687C205.286 150.565 227.379 159.971 268.474 140.84C310.028 121.517 338.352 88.1977 353.425 67.4474Z" fill="url(#paint5_linear_12_13)"/>
<defs>
<linearGradient id="paint0_linear_12_13" x1="39.2161" y1="248.911" x2="311.471" y2="-25.7123" gradientUnits="userSpaceOnUse">
<stop stop-color="#ED1C24"/>
<stop offset="1" stop-color="#FCEE21"/>
</linearGradient>
<linearGradient id="paint1_linear_12_13" x1="83.7301" y1="112.351" x2="265.765" y2="111.563" gradientUnits="userSpaceOnUse">
<stop stop-color="#35C4FE"/>
<stop offset="1" stop-color="#FCEE21"/>
</linearGradient>
<linearGradient id="paint2_linear_12_13" x1="115.778" y1="111.872" x2="353.61" y2="110.842" gradientUnits="userSpaceOnUse">
<stop stop-color="#2690BA"/>
<stop offset="1" stop-color="#219DFC"/>
</linearGradient>
<linearGradient id="paint3_linear_12_13" x1="58.0991" y1="112.147" x2="292.265" y2="111.133" gradientUnits="userSpaceOnUse">
<stop stop-color="#35C4FE"/>
<stop offset="1" stop-color="#BCE068"/>
</linearGradient>
<linearGradient id="paint4_linear_12_13" x1="224.001" y1="183.415" x2="353.922" y2="182.853" gradientUnits="userSpaceOnUse">
<stop stop-color="#FE8235"/>
<stop offset="1" stop-color="#FCB721"/>
</linearGradient>
<linearGradient id="paint5_linear_12_13" x1="144.47" y1="145.425" x2="353.756" y2="144.519" gradientUnits="userSpaceOnUse">
<stop stop-color="#A435FE"/>
<stop offset="1" stop-color="#FC2121"/>
</linearGradient>
</defs>
</svg>
